<svg xmlns="http://www.w3.org/2000/svg" width="32" height="32" viewBox="0 0 32 32">
  <rect width="32" height="32" rx="6" fill="hsl(174, 62%, 34%)"/>
  <path d="M16 6C12 6 8 10 8 16c0 4 2 7 4 9" stroke="white" stroke-width="2" stroke-linecap="round" fill="none"/>
  <path d="M12 25c2-2 4-5 4-9 0-6 4-8 8-10-2 6-4 10-4 14 0 2-1 4-2 5" stroke="white" stroke-width="2" stroke-linecap="round" fill="none"/>
  <path d="M10 18c2-1 5-2 8-2" stroke="white" stroke-width="1.5" stroke-linecap="round" fill="none" opacity="0.7"/>
  <path d="M11 22c2-1 4-3 6-4" stroke="white" stroke-width="1.5" stroke-linecap="round" fill="none" opacity="0.7"/>
</svg>
